<?xml version="1.0" encoding="utf-8"?>
<!-- Generator: Adobe Illustrator 17.1.0, SVG Export Plug-In . SVG Version: 6.00 Build 0)  -->
<!DOCTYPE svg PUBLIC "-//W3C//DTD SVG 1.1//EN" "http://www.w3.org/Graphics/SVG/1.1/DTD/svg11.dtd">
<svg version="1.1" id="Layer_1" xmlns="http://www.w3.org/2000/svg" xmlns:xlink="http://www.w3.org/1999/xlink" x="0px" y="0px"
	 viewBox="0 0 200 200" enable-background="new 0 0 200 200" xml:space="preserve">
<path fill="#26C6DA" d="M188.7,114.6c0-20-16.2-36.2-36.2-36.2c-1.5,0-3,0.1-4.4,0.3c-3.7-11.4-15.1-29.8-37.5-26.6l-4.5,0.6
	l-0.1,4.5c-0.2,7.6,3.5,15.9,9.8,22.5c3.7,3.8,8,6.6,12.4,8.2c-4.5,4.1-7.9,9.3-9.9,15.2H90.6c-2.5,0-4.6,2.1-4.6,4.6v0.7
	c0,0.5,0.1,1,0.1,1.5c-1.1-1.8-2.3-3.5-3.7-5.1l0.2-4.4c3.3-1.6,6.4-4,9.3-6.8c6.3-6.5,10-14.9,9.8-22.5l-0.1-4.5l-4.5-0.6
	c-4.8-0.7-9-0.3-12.9,0.7L86,28.6c0.1-2.1-1-4-2.9-5c-0.8-0.4-1.6-0.6-2.5-0.6H22c-0.9,0-1.7,0.2-2.5,0.6c-1.9,1-3,3-2.9,5l4.2,88.6
	c-1.2,3.6-1.9,7.5-1.9,11.5c0,2.2,0.3,4.4,0.7,6.5h-3.3c-2.8,0-5,2.3-4.9,5l0.1,5.7c2.1,19.5,17.6,35.1,37.1,37.1l101.5,0
	c19.8-1.8,35.7-17.4,37.8-37.2l0.3-6.2c0.1-2.5-1.9-4.5-4.3-4.5h-1.6C186.3,129.3,188.7,122.3,188.7,114.6z M113.5,131.9l9.9-9.9
	v12.7C119.9,134.2,116.6,133.2,113.5,131.9z M144.4,131.7c-3.2,1.5-6.7,2.5-10.4,3.1v-13.4L144.4,131.7z M141.6,113.8h18.5
	c-1.1,4.4-3.5,8.4-6.8,11.7L141.6,113.8z M123.5,72.2c-2.9-2.9-5-6.4-6-9.7c10.8,1,16.6,10.3,19.2,16.3c0,0-0.1,0-0.1,0
	C132.4,78.7,127.5,76.3,123.5,72.2z M155.9,89.3c11.3,1.5,20.4,10.5,22,21.8c1.3,9.9-3.1,18.8-10.3,24h-9
	c7.9-6.8,12.9-16.2,12.9-26.7v-0.8c0-2.5-2-4.5-4.5-4.5h-37C134.6,93.9,144.6,87.8,155.9,89.3z M116.5,113.8l-12.1,12.1
	c-3.5-3.4-6-7.5-7.1-12.1H116.5z M98.9,135.1h-8.2c0.4-2.1,0.7-4.3,0.7-6.5c0-0.8-0.1-1.5-0.1-2.3C93.3,129.6,95.9,132.6,98.9,135.1
	z M32.4,135.1h-1.8c-0.6-2.1-1-4.2-1-6.5c0-14.1,11.5-25.5,25.5-25.5s25.5,11.5,25.5,25.5c0,2.3-0.4,4.4-1,6.5H70H38H32.4z
	 M84.2,86.2c-4,4.1-8.9,6.5-13.1,6.5c0,0-0.1,0-0.1,0c2.6-6,8.4-15.3,19.2-16.3C89.1,79.8,87,83.3,84.2,86.2z M59.6,92.7
	c-1.5-0.2-2.9-0.3-4.4-0.3c-9.4,0-17.9,3.6-24.4,9.5L28.9,62c3.5-2.1,9.2-4.5,14.6-2.1c11.8,5.3,23.4,5.8,30.1,5.8l-0.3,6.6
	C66,78.1,61.6,86.4,59.6,92.7z M75.1,33.7l-1,21.4c-6,0-16.1-0.3-26.2-4.9c-7.2-3.2-14.1-2-19.5,0.2l-0.8-16.7H75.1z M21.9,113.8
	h0.2c-0.1,0.2-0.2,0.3-0.2,0.4V113.8z M146.3,172.5H53.1c-15.7,0-28.6-11.6-30.8-26.7h5h48.1h101.8
	C174.9,160.9,162,172.5,146.3,172.5z"/>
</svg>
