<?xml version="1.0" encoding="utf-8"?>
<!-- Generator: Adobe Illustrator 17.1.0, SVG Export Plug-In . SVG Version: 6.00 Build 0)  -->
<!DOCTYPE svg PUBLIC "-//W3C//DTD SVG 1.1//EN" "http://www.w3.org/Graphics/SVG/1.1/DTD/svg11.dtd">
<svg version="1.1" id="Layer_1" xmlns="http://www.w3.org/2000/svg" xmlns:xlink="http://www.w3.org/1999/xlink" x="0px" y="0px"
	 viewBox="0 0 200 200" enable-background="new 0 0 200 200" xml:space="preserve">
<path fill="#26C6DA" d="M140.2,128.1c-0.2-0.6-0.2-1.6-0.2-2.7l0,0l-1.4-27.7c0-4.8-1.8-9-5-11.8c-3.8-3.5-9-4.6-12.6-5V35.3
	c0-4.8-3.8-8.6-8.6-8.6H54.7c-4.8,0-8.6,3.8-8.6,8.6v126.4h-8.3c-2.4,0-4.3,1.9-4.3,4.3c0,2.4,1.9,4.3,4.3,4.3h17h57.6h17
	c2.4,0,4.3-1.9,4.3-4.3c0-2.4-1.9-4.3-4.3-4.3H121V89.4c2.4,0.3,5.1,1.1,6.9,2.7c1.4,1.3,2.1,3,2.1,5.6v0.2l1.4,29.6
	c0.2,1.1,0.3,2.6,0.3,2.9c1.4,8.2,8.6,14.4,17.3,14.4c9.8,0,17.6-7.8,17.6-17.6c0-0.2,0-0.2,0-0.3l-3.8-53.1l0,0
	c-0.3-3.8-1.3-11.7,0.8-13.4c3.4-2.9-2.6-13.4-2.6-13.4l0,0c-6.2-13.6-20.6-19.2-20.6-19.2l-0.6-0.2c-0.3-0.2-0.5-0.2-0.8-0.2l0,0
	c-0.2,0-0.2,0-0.2,0c-0.2,0-0.3,0-0.5,0.2l0,0c-0.2,0-0.2,0.2-0.3,0.2l0,0c-0.3,0.2-0.6,0.6-0.6,1.3c0,1.3,1,1.6,1,1.6l0,0
	c3.5,1.9,6.6,5.4,8.5,8.2c0.8,1.1,1.4,2.2,2.1,3.2c0,0.2,0.2,0.2,0.2,0.2l0,0c0.2,0.3,0.3,0.6,0.5,1l0,0l0,0c0,0.2,0.2,0.3,0.2,0.5
	c1,2.1,1.4,3.4,1.4,3.4l0,0c3,8.2,3.7,16.5,3.7,16.5v0.5l0,0l3.4,63.5c0,4.8-4,8.8-9,8.8c-4.3,0-7.8-3-8.8-7l0,0 M54.7,35.3h57.6
	v45.3H54.7V35.3z M54.7,161.7V89.2h57.6v72.5H54.7L54.7,161.7z"/>
</svg>
