<?xml version="1.0" encoding="utf-8"?>
<!-- Generator: Adobe Illustrator 17.1.0, SVG Export Plug-In . SVG Version: 6.00 Build 0)  -->
<!DOCTYPE svg PUBLIC "-//W3C//DTD SVG 1.1//EN" "http://www.w3.org/Graphics/SVG/1.1/DTD/svg11.dtd">
<svg version="1.1" id="Layer_1" xmlns="http://www.w3.org/2000/svg" xmlns:xlink="http://www.w3.org/1999/xlink" x="0px" y="0px"
	 viewBox="0 0 200 200" enable-background="new 0 0 200 200" xml:space="preserve">
<g>
	<path fill="#26C6DA" d="M119.1,123.4V39.3c0-9.8-7.9-17.7-17.7-17.7s-17.7,7.9-17.7,17.7v84.2c-8.5,5.7-14.2,15.5-14.2,26.5
		c0,17.6,14.3,31.9,31.9,31.9c17.6,0,31.9-14.3,31.9-31.9C133.3,138.9,127.7,129.2,119.1,123.4z M101.5,175.3
		c-14,0-25.3-11.3-25.3-25.3c0-10.2,6.1-19,14.8-23V39.3c0-5.8,4.7-10.5,10.5-10.5c5.8,0,10.5,4.7,10.5,10.5v87.6
		c8.7,4,14.8,12.8,14.8,23C126.8,164,115.4,175.3,101.5,175.3z"/>
	<path fill="#26C6DA" d="M107.1,132.1V40.4c0-3.1-2.5-5.6-5.6-5.6c-3.1,0-5.6,2.5-5.6,5.6v91.7c-7.6,2.4-13.1,9.5-13.1,17.8
		c0,10.3,8.4,18.7,18.7,18.7c10.3,0,18.7-8.4,18.7-18.7C120.2,141.6,114.7,134.5,107.1,132.1z"/>
</g>
</svg>
