<?xml version="1.0" encoding="utf-8"?>
<!-- Generator: Adobe Illustrator 17.1.0, SVG Export Plug-In . SVG Version: 6.00 Build 0)  -->
<!DOCTYPE svg PUBLIC "-//W3C//DTD SVG 1.1//EN" "http://www.w3.org/Graphics/SVG/1.1/DTD/svg11.dtd">
<svg version="1.1" id="Layer_1" xmlns="http://www.w3.org/2000/svg" xmlns:xlink="http://www.w3.org/1999/xlink" x="0px" y="0px"
	 viewBox="0 0 200 200" enable-background="new 0 0 200 200" xml:space="preserve">
<path fill="#26C6DA" d="M191.2,87.4l-20.5,0l4.1-6.4c2.6-4.1,1.4-9.5-2.7-12.1c-4.1-2.6-9.5-1.4-12.1,2.7l-10.1,15.9l-34.6,0.1
	l17.3-30.4l23.9-1.3c4.9-0.3,8.6-4.4,8.3-9.3c-0.3-4.9-4.4-8.6-9.3-8.3L142.8,39l5.5-9.7c2.4-4.2,0.9-9.6-3.3-12
	c-4.2-2.4-9.6-0.9-12,3.3l-5.6,9.8l-3.4-6.2c-2.3-4.3-7.7-5.8-12-3.5c-4.2,2.3-5.8,7.7-3.5,11.9l8.6,15.7L100,78.7L82.7,48.3
	l8.6-15.7c2.3-4.3,0.8-9.6-3.5-11.9c-4.3-2.3-9.6-0.8-12,3.5l-3.4,6.2l-5.6-9.8c-2.4-4.2-7.8-5.7-12-3.3c-4.2,2.4-5.7,7.8-3.3,12
	l5.5,9.7l-12.6-0.7c-4.9-0.3-9,3.5-9.3,8.3c-0.3,4.9,3.5,9,8.3,9.3l23.9,1.3l17.3,30.4l-34.6-0.1L40.1,71.6c-2.6-4.1-8-5.3-12.1-2.7
	c-4.1,2.6-5.3,8-2.7,12.1l4.1,6.4l-20.5,0C4,87.4,0,91.4,0,96.2c0,4.9,3.9,8.8,8.8,8.8l20.2,0l-6.4,10.3c-2.6,4.1-1.3,9.5,2.8,12.1
	c4.1,2.6,9.6,1.3,12.1-2.8l12.1-19.5l35.2,0.1l-16.8,29.4l-18.2,1c-4.8,0.3-8.6,4.4-8.3,9.3s4.4,8.6,9.3,8.3l6.7-0.4l-10.3,18
	c-2.4,4.2-0.9,9.6,3.3,12c4.2,2.4,9.6,1,12-3.3l10.7-18.7l6.3,11.3c2.4,4.3,7.7,5.8,12,3.4c4.2-2.4,5.8-7.7,3.4-12l-11.5-20.6
	l16.4-28.8l0,0l0,0l16.5,28.8L105,163.6c-2.4,4.3-0.8,9.6,3.4,12c4.2,2.4,9.6,0.9,12-3.4l6.3-11.3l10.7,18.7c2.4,4.2,7.8,5.7,12,3.3
	c4.2-2.4,5.7-7.8,3.3-12l-10.3-18l6.7,0.4c4.9,0.3,9-3.4,9.3-8.3c0.3-4.8-3.4-9-8.3-9.3l-18.2-1l-16.8-29.4l35.2-0.1l12.1,19.5
	c2.6,4.1,8,5.4,12.1,2.8c4.1-2.6,5.4-8,2.8-12.1l-6.4-10.3l20.2,0c4.9,0,8.8-4,8.8-8.8C200,91.4,196,87.4,191.2,87.4z"/>
</svg>
