<?xml version="1.0" encoding="utf-8"?>
<!-- Generator: Adobe Illustrator 17.1.0, SVG Export Plug-In . SVG Version: 6.00 Build 0)  -->
<!DOCTYPE svg PUBLIC "-//W3C//DTD SVG 1.1//EN" "http://www.w3.org/Graphics/SVG/1.1/DTD/svg11.dtd">
<svg version="1.1" id="Layer_1" xmlns="http://www.w3.org/2000/svg" xmlns:xlink="http://www.w3.org/1999/xlink" x="0px" y="0px"
	 viewBox="0 0 200 200" enable-background="new 0 0 200 200" xml:space="preserve">
<path fill="#26C6DA" d="M99,46.7c-3.3,0-5.9-2.7-5.9-5.9V7.1c0-3.3,2.7-5.9,5.9-5.9c3.3,0,5.9,2.7,5.9,5.9v33.7
	C104.9,44,102.3,46.7,99,46.7z"/>
<path fill="#26C6DA" d="M99,197.2c-3.3,0-5.9-2.7-5.9-5.9v-33.7c0-3.3,2.7-5.9,5.9-5.9c3.3,0,5.9,2.7,5.9,5.9v33.7
	C104.9,194.5,102.3,197.2,99,197.2z"/>
<path fill="#26C6DA" d="M191.1,105.1h-33.7c-3.3,0-5.9-2.7-5.9-5.9c0-3.3,2.7-5.9,5.9-5.9h33.7c3.3,0,5.9,2.7,5.9,5.9
	C197,102.4,194.3,105.1,191.1,105.1z"/>
<path fill="#26C6DA" d="M40.6,105.1H6.9c-3.3,0-5.9-2.7-5.9-5.9s2.7-5.9,5.9-5.9h33.7c3.3,0,5.9,2.7,5.9,5.9S43.9,105.1,40.6,105.1z
	"/>
<path fill="#26C6DA" d="M164.1,170.2c-1.5,0-3-0.6-4.2-1.7l-23.8-23.8c-2.3-2.3-2.3-6.1,0-8.4c2.3-2.3,6.1-2.3,8.4,0l23.8,23.8
	c2.3,2.3,2.3,6.1,0,8.4C167.1,169.6,165.6,170.2,164.1,170.2z"/>
<path fill="#26C6DA" d="M57.7,63.8c-1.5,0-3-0.6-4.2-1.7L29.7,38.3c-2.3-2.3-2.3-6.1,0-8.4s6.1-2.3,8.4,0l23.8,23.8
	c2.3,2.3,2.3,6.1,0,8.4C60.7,63.2,59.2,63.8,57.7,63.8z"/>
<path fill="#26C6DA" d="M33.9,170.2c-1.5,0-3-0.6-4.2-1.7c-2.3-2.3-2.3-6.1,0-8.4l23.8-23.8c2.3-2.3,6.1-2.3,8.4,0
	c2.3,2.3,2.3,6.1,0,8.4l-23.8,23.8C37,169.6,35.4,170.2,33.9,170.2z"/>
<path fill="#26C6DA" d="M140.3,63.8c-1.5,0-3-0.6-4.2-1.7c-2.3-2.3-2.3-6.1,0-8.4l23.8-23.8c2.3-2.3,6.1-2.3,8.4,0
	c2.3,2.3,2.3,6.1,0,8.4l-23.8,23.8C143.3,63.2,141.8,63.8,140.3,63.8z"/>
<path fill="#26C6DA" d="M99,137.9c-21.3,0-38.7-17.4-38.7-38.7c0-21.3,17.4-38.7,38.7-38.7c21.4,0,38.7,17.4,38.7,38.7
	C137.7,120.5,120.4,137.9,99,137.9z M99,72.3c-14.8,0-26.8,12-26.8,26.8c0,14.8,12,26.8,26.8,26.8s26.8-12,26.8-26.8
	C125.8,84.4,113.8,72.3,99,72.3z"/>
</svg>
