<?xml version="1.0" encoding="utf-8"?>
<!-- Generator: Adobe Illustrator 17.1.0, SVG Export Plug-In . SVG Version: 6.00 Build 0)  -->
<!DOCTYPE svg PUBLIC "-//W3C//DTD SVG 1.1//EN" "http://www.w3.org/Graphics/SVG/1.1/DTD/svg11.dtd">
<svg version="1.1" id="Layer_1" xmlns="http://www.w3.org/2000/svg" xmlns:xlink="http://www.w3.org/1999/xlink" x="0px" y="0px"
	 viewBox="0 0 200 200" enable-background="new 0 0 200 200" xml:space="preserve">
<g>
	<path fill="#26C6DA" d="M54.5,81.5c-2.5-1.6-5.4-2.4-8.7-2.4c-2.3,0-4.5,0.4-6.5,1.3c-2,0.9-3.7,2.2-5.1,3.8
		c-1.4,1.7-2.6,3.8-3.4,6.4c-0.8,2.6-1.2,5.5-1.2,8.8c0,3.3,0.4,6.2,1.2,8.9c0.8,2.6,2,4.8,3.5,6.6s3.2,3,5.2,3.9
		c2,0.9,4.1,1.3,6.4,1.3c3,0,5.7-0.7,8.2-2.2c2.5-1.5,4.5-3.8,6-6.9c1.5-3.1,2.2-7,2.2-11.5c0-4.2-0.7-7.9-2-11
		C59,85.4,57,83.1,54.5,81.5z"/>
	<path fill="#26C6DA" d="M162.7,82.8c-2.6-1.5-5.5-2.2-8.9-2.2c-2.4,0-4.6,0.4-6.6,1.2c-2,0.8-3.7,2-5.2,3.6c-1.5,1.6-2.6,3.5-3.4,6
		c-0.8,2.4-1.3,5.1-1.3,8.1c0,3,0.4,5.8,1.3,8.2c0.8,2.5,2,4.5,3.6,6.1c1.5,1.6,3.3,2.8,5.3,3.6c2,0.8,4.2,1.2,6.5,1.2
		c3,0,5.8-0.7,8.4-2.1c2.5-1.4,4.6-3.5,6.1-6.4c1.5-2.9,2.3-6.4,2.3-10.7c0-3.9-0.7-7.3-2.1-10.2C167.2,86.4,165.2,84.3,162.7,82.8z
		"/>
	<path fill="#26C6DA" d="M154,59.4c-14.6,0-27.3,7.7-34.5,19.3h-1.1h-38C73.3,67.2,60.5,59.4,46,59.4C23.6,59.4,5.4,77.6,5.4,100
		c0,22.4,18.2,40.6,40.6,40.6c14.2,0,26.7-7.3,33.9-18.4h38.9h1.3c7.2,11.1,19.7,18.4,33.9,18.4c22.4,0,40.6-18.2,40.6-40.6
		C194.6,77.6,176.4,59.4,154,59.4z M72.4,111.7c-1.2,3.6-3,6.8-5.4,9.5c-2.4,2.7-5.4,4.7-8.9,6.1c-3.5,1.4-7.5,2.1-12.1,2.1
		c-4.5,0-8.5-0.7-12.1-2.2c-3.6-1.5-6.5-3.5-8.9-6.1c-2.4-2.6-4.2-5.8-5.4-9.5c-1.2-3.7-1.8-7.7-1.8-12.1c0-4.4,0.6-8.5,1.9-12.2
		c1.3-3.7,3.1-6.8,5.5-9.4c2.4-2.6,5.3-4.6,8.8-6c3.5-1.4,7.4-2.1,11.8-2.1c6,0,11.1,1.2,15.4,3.6c4.3,2.4,7.5,5.9,9.7,10.3
		c2.2,4.5,3.3,9.7,3.3,15.7C74.2,104,73.6,108,72.4,111.7z M86,106.5c0.3-2.1,0.6-4.3,0.6-6.5c0-1.9-0.2-3.8-0.4-5.6h27.8
		c-0.3,1.8-0.4,3.7-0.4,5.6c0,2.2,0.2,4.4,0.6,6.5H86z M180.9,110.8c-1.2,3.4-3.1,6.3-5.5,8.8c-2.5,2.5-5.5,4.4-9,5.7
		c-3.6,1.3-7.7,2-12.3,2c-4.6,0-8.7-0.7-12.3-2c-3.6-1.3-6.6-3.2-9.1-5.7c-2.4-2.5-4.3-5.4-5.5-8.9c-1.2-3.4-1.9-7.2-1.9-11.2
		c0-4.1,0.6-7.9,1.9-11.3c1.3-3.4,3.2-6.3,5.6-8.7c2.5-2.4,5.4-4.2,9-5.5c3.5-1.3,7.5-1.9,12-1.9c6.1,0,11.3,1.1,15.7,3.4
		c4.4,2.2,7.7,5.4,9.9,9.6c2.2,4.1,3.4,9,3.4,14.6C182.7,103.7,182.1,107.4,180.9,110.8z"/>
</g>
</svg>
