<?xml version="1.0" encoding="utf-8"?>
<!-- Generator: Adobe Illustrator 17.1.0, SVG Export Plug-In . SVG Version: 6.00 Build 0)  -->
<!DOCTYPE svg PUBLIC "-//W3C//DTD SVG 1.1//EN" "http://www.w3.org/Graphics/SVG/1.1/DTD/svg11.dtd">
<svg version="1.1" id="Layer_1" xmlns="http://www.w3.org/2000/svg" xmlns:xlink="http://www.w3.org/1999/xlink" x="0px" y="0px"
	 viewBox="0 0 200 200" enable-background="new 0 0 200 200" xml:space="preserve">
<g>
	<path fill="#26C6DA" d="M33.1,55.6l13.2,21.8c1.4,2.4,0.7,5.4-1.6,6.9l-7.2,4.6c-2.4,1.5-3.1,4.7-1.5,7.1
		c4.9,7.3,15.1,21.5,22.4,23.5c6.6,1.8,13.6,2,17.5,2c2,0,3.7-1.2,4.6-2.9c1.7-3.5,4.4-10,5.5-16.7c1.2-7.5-7.4-22.7-12-30.2
		c-1.5-2.4-4.7-3.1-7.1-1.6l-6.9,4.4c-2.4,1.5-5.6,0.8-7.1-1.7l-13-21.5l10.7-6.7c4.7-2.9,6.1-9.1,3.2-13.8l-4.4-7
		c-1.8-2.9-5-4.7-8.5-4.7c-1.9,0-3.7,0.5-5.3,1.5l-28,17.5c-2.3,1.4-3.8,3.6-4.4,6.2C2.5,47.1,3,49.8,4.4,52l4.4,7
		c1.8,2.9,5,4.7,8.5,4.7c1.9,0,3.7-0.5,5.3-1.5L33.1,55.6z M15.6,54.8l-4.4-7c-0.4-0.6-0.3-1.2-0.3-1.5c0.1-0.3,0.3-0.9,0.9-1.2
		l28-17.5c0.3-0.2,0.7-0.3,1.1-0.3c0.7,0,1.3,0.4,1.7,0.9l4.4,7c0.6,0.9,0.3,2.2-0.6,2.8l-28,17.5C17.4,56,16.1,55.7,15.6,54.8z"/>
	<path fill="#26C6DA" d="M183.4,170c-2.8-29.7-27.8-52.9-58.2-52.9c-18.5,0-35,8.6-45.7,22c-1.4,1.8-3.9,2.3-6,1.5
		c-4.5-1.9-9.5-3-14.8-3c-19,0-34.7,13.9-37.5,32.1c-0.5,3.1,2,5.9,5.1,5.9h152C181.3,175.6,183.7,173,183.4,170z"/>
	<circle fill="#26C6DA" cx="134.2" cy="102.2" r="9.8"/>
	<circle fill="#26C6DA" cx="171.5" cy="110.7" r="8.5"/>
	<circle fill="#26C6DA" cx="155.7" cy="92.7" r="3.3"/>
</g>
</svg>
