<?xml version="1.0" encoding="utf-8"?>
<!-- Generator: Adobe Illustrator 17.1.0, SVG Export Plug-In . SVG Version: 6.00 Build 0)  -->
<!DOCTYPE svg PUBLIC "-//W3C//DTD SVG 1.1//EN" "http://www.w3.org/Graphics/SVG/1.1/DTD/svg11.dtd">
<svg version="1.1" id="Layer_1" xmlns="http://www.w3.org/2000/svg" xmlns:xlink="http://www.w3.org/1999/xlink" x="0px" y="0px"
	 viewBox="0 0 200 200" enable-background="new 0 0 200 200" xml:space="preserve">
<g>
	<path fill="#26C6DA" d="M149.7,18.6l-26.3,4.6l-9-6.3l-33.9,5.8L76,31.1l-28.4,4.8c-4.3,0.7-7.2,4.8-6.5,9.1
		c0.7,4.3,4.8,7.2,9.1,6.5l102-17.4c4.3-0.7,7.2-4.8,6.5-9.1C158.1,20.7,154,17.8,149.7,18.6z"/>
</g>
<path fill="#26C6DA" d="M43.4,59.9L56,168.5c0.4,3.2,3.1,5.7,6.4,5.7H138c3.3,0,6-2.5,6.4-5.7l11.8-108.6c0.4-3.8-2.6-7.1-6.4-7.1
	l-100,0C46,52.7,43,56.1,43.4,59.9z M74.2,161.3c-3.2,0.3-5.9-2-6.2-5.2L60,72c-0.3-3.1,2-5.9,5.1-6.2c3.2-0.3,5.9,2,6.2,5.2l8,84.1
	C79.7,158.2,77.4,161,74.2,161.3z M99.6,161.5c-3.2,0-5.7-2.5-5.7-5.7l-0.2-84.5c0-3.2,2.5-5.7,5.7-5.7c3.2,0,5.7,2.5,5.7,5.7
	l0.2,84.5C105.4,158.9,102.8,161.5,99.6,161.5z M132.3,156c-0.2,3.2-3,5.5-6.1,5.3c-3.2-0.2-5.5-3-5.3-6.1l6.2-84.3
	c0.2-3.1,3-5.5,6.1-5.3c3.2,0.2,5.5,3,5.3,6.1L132.3,156z"/>
</svg>
