<?xml version="1.0" encoding="utf-8"?>
<!-- Generator: Adobe Illustrator 16.0.0, SVG Export Plug-In . SVG Version: 6.00 Build 0)  -->
<!DOCTYPE svg PUBLIC "-//W3C//DTD SVG 1.1//EN" "http://www.w3.org/Graphics/SVG/1.1/DTD/svg11.dtd">
<svg version="1.1" xmlns="http://www.w3.org/2000/svg" xmlns:xlink="http://www.w3.org/1999/xlink" x="0px" y="0px" width="612px"
	 height="792px" viewBox="0 0 612 792" enable-background="new 0 0 612 792" xml:space="preserve">
<g id="Layer_2">
	<rect x="-1" y="-2" fill="#FFFFFF" stroke="#000000" stroke-miterlimit="10" width="612" height="792"/>
</g>
<g id="Layer_1">
	<path fill="#26C6DA" d="M577.422,285.495c0-61.2-49.572-110.772-110.771-110.772c-4.594,0-9.184,0.306-13.468,0.918
		c-11.318-34.884-46.202-91.188-114.75-81.396l-13.77,1.836l-0.306,13.771c-0.612,23.256,10.71,48.654,29.984,68.85
		c11.322,11.628,24.48,20.196,37.944,25.092c-13.771,12.546-24.174,28.458-30.294,46.512h-84.762
		c-7.65,0-14.076,6.426-14.076,14.075v2.143c0,1.53,0.306,3.06,0.306,4.59c-3.366-5.508-7.038-10.71-11.322-15.604l0.612-13.466
		c10.098-4.896,19.584-12.24,28.458-20.808c19.278-19.89,30.602-45.594,29.988-68.85l-0.309-13.77l-13.771-1.836
		c-14.688-2.142-27.54-0.918-39.474,2.142l5.508-116.586c0.306-6.426-3.06-12.24-8.874-15.3c-2.448-1.224-4.896-1.836-7.65-1.836
		H67.32c-2.754,0-5.202,0.612-7.65,1.836c-5.814,3.06-9.18,9.18-8.874,15.3l12.852,271.116c-3.672,11.019-5.814,22.95-5.814,35.19
		c0,6.729,0.918,13.464,2.142,19.89H49.878c-8.568,0-15.3,7.038-14.994,15.3l0.306,17.442
		c6.426,59.669,53.856,107.406,113.526,113.527h310.59c60.589-5.512,109.242-53.244,115.668-113.833l0.918-18.975
		c0.31-7.647-5.812-13.77-13.154-13.77h-4.896C570.078,330.477,577.422,309.057,577.422,285.495z M347.31,338.433l30.294-30.294
		v38.859C366.894,345.471,356.796,342.411,347.31,338.433z M441.864,337.821c-9.792,4.59-20.502,7.65-31.824,9.486v-41.004
		L441.864,337.821z M433.296,283.046h56.61c-3.366,13.467-10.71,25.704-20.812,35.805L433.296,283.046z M377.91,155.751
		c-8.874-8.874-15.3-19.584-18.36-29.682c33.048,3.06,50.796,31.518,58.752,49.878h-0.306
		C405.144,175.641,390.15,168.297,377.91,155.751z M477.054,208.077c34.578,4.59,62.424,32.13,67.32,66.708
		c3.978,30.294-9.486,57.528-31.519,73.44h-27.539c24.174-20.811,39.474-49.572,39.474-81.702v-2.448
		c0-7.647-6.12-13.77-13.771-13.77H397.8C411.876,222.153,442.476,203.487,477.054,208.077z M356.49,283.046l-37.026,37.026
		c-10.71-10.404-18.36-22.95-21.726-37.026H356.49z M302.634,348.225h-25.092c1.224-6.426,2.142-13.158,2.142-19.893
		c0-2.445-0.306-4.59-0.306-7.038C285.498,331.395,293.454,340.575,302.634,348.225z M99.144,348.225h-5.508
		c-1.836-6.426-3.06-12.854-3.06-19.893c0-43.146,35.19-78.027,78.03-78.027s78.03,35.188,78.03,78.027
		c0,7.038-1.224,13.467-3.06,19.893H214.2h-97.92H99.144L99.144,348.225z M257.652,198.591c-12.24,12.546-27.234,19.89-40.086,19.89
		h-0.306c7.956-18.36,25.704-46.818,58.752-49.878C272.646,179.007,266.22,189.717,257.652,198.591z M182.376,218.481
		c-4.59-0.612-8.874-0.918-13.464-0.918c-28.764,0-54.774,11.016-74.664,29.07l-5.814-122.095
		c10.71-6.426,28.152-13.77,44.676-6.426c36.108,16.218,71.604,17.748,92.106,17.748l-0.918,20.196
		C201.96,173.805,188.496,199.203,182.376,218.481z M229.806,37.941l-3.06,65.484c-18.36,0-49.266-0.918-80.172-14.994
		c-22.032-9.792-43.146-6.12-59.67,0.612l-2.448-51.102H229.806L229.806,37.941z M67.014,283.046h0.612
		c-0.306,0.612-0.612,0.921-0.612,1.227V283.046z M447.678,462.668H162.486c-48.042,0-87.516-35.496-94.248-81.699h15.3h147.186
		h311.508C535.194,427.172,495.72,462.668,447.678,462.668z"/>
	<rect y="665.5" fill="none" width="612" height="100"/>
	<rect x="0.148" y="591" fill="none" width="612" height="201"/>
	<text transform="matrix(1 0 0 1 46.2847 743.3984)" fill="#26C6DA" font-family="'Roboto-Bold'" font-size="200">FOOD</text>
</g>
</svg>
