<?xml version="1.0" encoding="utf-8"?>
<!-- Generator: Adobe Illustrator 16.0.0, SVG Export Plug-In . SVG Version: 6.00 Build 0)  -->
<!DOCTYPE svg PUBLIC "-//W3C//DTD SVG 1.1//EN" "http://www.w3.org/Graphics/SVG/1.1/DTD/svg11.dtd">
<svg version="1.1" xmlns="http://www.w3.org/2000/svg" xmlns:xlink="http://www.w3.org/1999/xlink" x="0px" y="0px" width="612px"
	 height="792px" viewBox="0 0 612 792" enable-background="new 0 0 612 792" xml:space="preserve">
<g id="Layer_2">
	<rect x="-1" y="-2" fill="#FFFFFF" stroke="#000000" stroke-miterlimit="10" width="612" height="792"/>
</g>
<g id="Layer_1">
	<g>
		<path fill="#26C6DA" d="M364.446,316.248V58.902c0-29.987-24.175-54.161-54.162-54.161c-29.988,0-54.162,24.174-54.162,54.161
			v257.652c-26.01,17.44-43.452,47.43-43.452,81.089c0,53.856,43.758,97.614,97.614,97.614c53.854,0,97.614-43.759,97.614-97.614
			C407.898,363.679,390.762,333.996,364.446,316.248z M310.59,475.062c-42.84,0-77.418-34.578-77.418-77.419
			c0-31.211,18.666-58.14,45.288-70.379V58.902c0-17.748,14.382-32.13,32.13-32.13s32.13,14.382,32.13,32.13V326.96
			c26.622,12.238,45.288,39.168,45.288,70.38C388.008,440.484,353.124,475.062,310.59,475.062z"/>
		<path fill="#26C6DA" d="M327.726,342.87V62.269c0-9.485-7.647-17.136-17.136-17.136c-9.486,0-17.136,7.65-17.136,17.136V342.87
			c-23.256,7.346-40.086,29.07-40.086,54.47c0,31.519,25.704,57.223,57.222,57.223c31.521,0,57.224-25.704,57.224-57.223
			C367.812,371.94,350.982,350.215,327.726,342.87z"/>
	</g>
	<rect y="657" fill="none" width="612" height="130"/>
	<rect y="591" fill="none" width="612" height="201"/>
	<text transform="matrix(1 0 0 1 56.6836 743.3984)" fill="#26C6DA" font-family="'Roboto-Bold'" font-size="200">HEAT</text>
</g>
</svg>
