<?xml version="1.0" encoding="utf-8"?>
<!-- Generator: Adobe Illustrator 16.0.0, SVG Export Plug-In . SVG Version: 6.00 Build 0)  -->
<!DOCTYPE svg PUBLIC "-//W3C//DTD SVG 1.1//EN" "http://www.w3.org/Graphics/SVG/1.1/DTD/svg11.dtd">
<svg version="1.1" xmlns="http://www.w3.org/2000/svg" xmlns:xlink="http://www.w3.org/1999/xlink" x="0px" y="0px" width="612px"
	 height="792px" viewBox="0 0 612 792" enable-background="new 0 0 612 792" xml:space="preserve">
<g id="Layer_2">
	<rect x="-1" y="-2" fill="#FFFFFF" stroke="#000000" stroke-miterlimit="10" width="612" height="792"/>
</g>
<g id="Layer_1">
	<g>
		<path fill="#26C6DA" d="M458.082,14.534L377.603,28.61L350.064,9.332L246.33,27.08l-13.77,25.704l-86.904,14.688
			c-13.158,2.142-22.032,14.688-19.89,27.846c2.142,13.158,14.688,22.032,27.846,19.89l312.123-53.244
			c13.155-2.142,22.029-14.688,19.89-27.846C483.786,20.959,471.24,12.085,458.082,14.534z"/>
	</g>
	<path fill="#26C6DA" d="M132.804,140.912l38.556,332.316c1.224,9.791,9.486,17.439,19.584,17.439H422.28
		c10.098,0,18.357-7.648,19.584-17.439l36.105-332.316c1.227-11.628-7.956-21.726-19.584-21.726h-306
		C140.759,118.879,131.58,129.284,132.804,140.912z M227.051,451.195c-9.792,0.918-18.054-6.119-18.972-15.912L183.6,177.938
		c-0.918-9.486,6.12-18.054,15.606-18.972c9.792-0.918,18.054,6.12,18.972,15.912l24.48,257.347
		C243.881,441.709,236.843,450.277,227.051,451.195z M304.775,451.809c-9.792,0-17.442-7.649-17.442-17.442l-0.612-258.57
		c0-9.792,7.65-17.442,17.442-17.442s17.443,7.65,17.443,17.442l0.609,258.57C322.524,443.852,314.568,451.809,304.775,451.809z
		 M404.838,434.979c-0.612,9.791-9.18,16.83-18.666,16.218c-9.792-0.611-16.83-9.181-16.218-18.666l18.972-257.958
		c0.612-9.486,9.183-16.83,18.666-16.218c9.792,0.612,16.83,9.18,16.218,18.666L404.838,434.979z"/>
	<rect y="692" fill="none" width="612" height="100"/>
	<rect y="591.5" fill="none" width="612" height="201"/>
	<text transform="matrix(1 0 0 1 0.2266 732.4688)" fill="#26C6DA" font-family="'Roboto-Bold'" font-size="185">WASTE</text>
</g>
</svg>
