<?xml version="1.0" encoding="utf-8"?>
<!-- Generator: Adobe Illustrator 16.0.0, SVG Export Plug-In . SVG Version: 6.00 Build 0)  -->
<!DOCTYPE svg PUBLIC "-//W3C//DTD SVG 1.1//EN" "http://www.w3.org/Graphics/SVG/1.1/DTD/svg11.dtd">
<svg version="1.1" id="Layer_1" xmlns="http://www.w3.org/2000/svg" xmlns:xlink="http://www.w3.org/1999/xlink" x="0px" y="0px"
	 width="612px" height="792px" viewBox="0 0 612 792" enable-background="new 0 0 612 792" xml:space="preserve">
<g id="Layer_2">
	<rect fill="#FFFFFF" stroke="#000000" stroke-miterlimit="10" width="612" height="792"/>
</g>
<g id="Layer_1_1_">
	<path fill="#26C6DA" d="M410.947,213.728c-44.31-41.541-72.071-72.822-95.35-128.291c-1.963-4.73-9.254-4.73-11.218,0
		c-23.557,55.469-51.6,86.75-96.189,127.766c-31.689,29.431-48.516,65.979-48.516,100.672
		c-0.28,76.771,66.464,139.074,149.191,139.331c82.729,0.269,149.754-61.779,150.034-138.537
		C458.902,280.232,442.357,243.171,410.947,213.728 M310.833,405.099v5.263c0,3.147-3.085,5.786-6.451,5.786
		c-53.563-3.161-96.189-42.858-99.274-92.542c-0.281-3.149,2.523-6.043,6.169-6.043h7.011c3.084,0,5.609,2.1,5.889,4.993
		c4.768,42.321,35.616,71.24,81.327,75.977c3.085,0.256,5.327,2.893,5.327,5.786L310.833,405.099z"/>
	<path fill="#26C6DA" d="M437.589,499.996l-259.684-0.781c-22.996,0-43.748-16.834-47.113-37.854L60.683,43.116
		c-1.963-11.042,1.402-22.083,8.694-30.231C76.948,4.73,88.166,0,100.225,0h419.813c12.058,0,23.276,4.73,30.849,13.147
		c7.291,8.148,10.655,19.19,8.693,30.231l-74.597,419.288C481.338,483.699,460.585,500.266,437.589,499.996z M520.318,34.967
		H100.504c-1.122,0-1.963,0.263-2.523,0.788c-0.28,0.262-0.561,1.05-0.28,2.1l69.828,418.244c0.561,4.212,5.89,8.154,10.376,8.154
		l259.684,0.781c4.487,0,9.816-3.942,10.657-8.144L522.843,37.59c0.28-0.787,0-1.575-0.28-1.837
		C522.281,35.23,521.44,34.967,520.318,34.967z"/>
	<text transform="matrix(1 0 0 1 0 741.5)" fill="#26C6DA" font-family="'Roboto-Bold'" font-size="185">WATER</text>
</g>
</svg>
