<?xml version="1.0" encoding="utf-8"?>
<!-- Generator: Adobe Illustrator 16.0.0, SVG Export Plug-In . SVG Version: 6.00 Build 0)  -->
<!DOCTYPE svg PUBLIC "-//W3C//DTD SVG 1.1//EN" "http://www.w3.org/Graphics/SVG/1.1/DTD/svg11.dtd">
<svg version="1.1" id="Layer_1" xmlns="http://www.w3.org/2000/svg" xmlns:xlink="http://www.w3.org/1999/xlink" x="0px" y="0px"
	 width="612px" height="792px" viewBox="0 0 612 792" enable-background="new 0 0 612 792" xml:space="preserve">
<rect y="658.5" fill="none" width="612" height="100"/>
<rect y="591" fill="none" width="612" height="201"/>
<g>
	<g>
		<defs>
			<rect id="SVGID_1_" x="-2.5" y="-58.5" width="617" height="617"/>
		</defs>
		<clipPath id="SVGID_2_">
			<use xlink:href="#SVGID_1_"  overflow="visible"/>
		</clipPath>
		<path clip-path="url(#SVGID_2_)" fill="#26C6DA" d="M152.308,202.127c-2.995-1.875-6.429-2.817-10.307-2.817
			c-2.764,0-5.316,0.521-7.657,1.562c-2.341,1.039-4.359,2.55-6.049,4.537c-1.69,1.984-3.026,4.521-4.004,7.608
			c-0.977,3.088-1.466,6.556-1.466,10.401c0,3.879,0.489,7.383,1.466,10.518c0.978,3.134,2.359,5.731,4.142,7.795
			c1.784,2.064,3.833,3.606,6.143,4.631c2.313,1.024,4.849,1.536,7.61,1.536c3.536,0,6.788-0.884,9.75-2.652
			c2.964-1.767,5.32-4.498,7.074-8.19c1.755-3.693,2.631-8.238,2.631-13.637c0-4.997-0.809-9.323-2.422-12.985
			C157.605,206.772,155.304,204.002,152.308,202.127"/>
	</g>
	<g>
		<defs>
			<rect id="SVGID_3_" x="-2.5" y="-58.5" width="617" height="617"/>
		</defs>
		<clipPath id="SVGID_4_">
			<use xlink:href="#SVGID_3_"  overflow="visible"/>
		</clipPath>
		<path clip-path="url(#SVGID_4_)" fill="#26C6DA" d="M468.391,203.688c-3.049-1.74-6.544-2.609-10.492-2.609
			c-2.812,0-5.408,0.48-7.795,1.443c-2.38,0.965-4.435,2.366-6.157,4.208c-1.722,1.841-3.079,4.195-4.07,7.056
			c-0.997,2.862-1.494,6.079-1.494,9.646c0,3.597,0.497,6.848,1.494,9.753c0.991,2.907,2.398,5.316,4.212,7.229
			c1.819,1.913,3.904,3.344,6.254,4.294c2.354,0.949,4.938,1.422,7.746,1.422c3.597,0,6.908-0.818,9.924-2.458
			c3.017-1.639,5.417-4.171,7.2-7.597c1.78-3.424,2.672-7.637,2.672-12.644c0-4.631-0.818-8.645-2.461-12.042
			C473.78,207.997,471.438,205.427,468.391,203.688"/>
	</g>
	<g>
		<defs>
			<rect id="SVGID_5_" x="-2.5" y="-58.5" width="617" height="617"/>
		</defs>
		<clipPath id="SVGID_6_">
			<use xlink:href="#SVGID_5_"  overflow="visible"/>
		</clipPath>
		<path clip-path="url(#SVGID_6_)" fill="#26C6DA" d="M458.135,175.999c-17.25,0-32.361,9.169-40.84,22.857h-49.908
			c-10.31-28.485-37.592-48.842-69.634-48.842c-32.043,0-59.328,20.357-69.637,48.842h-45.041
			c-8.478-13.688-23.591-22.857-40.842-22.857c-26.498,0-48.059,21.558-48.059,48.053c0,26.497,21.558,48.06,48.053,48.06
			c16.821,0,31.633-8.71,40.221-21.837h46.06c10.588,27.945,37.588,47.82,69.246,47.82c31.655,0,58.659-19.875,69.245-47.82h50.92
			c8.587,13.127,23.397,21.837,40.217,21.837c26.5,0,48.054-21.562,48.054-48.06C506.188,197.557,484.635,175.999,458.135,175.999
			 M173.508,237.894c-1.428,4.312-3.569,8.048-6.423,11.215c-2.856,3.164-6.361,5.585-10.519,7.261
			c-4.156,1.675-8.919,2.512-14.288,2.512c-5.337,0-10.115-0.86-14.333-2.582c-4.219-1.723-7.743-4.149-10.565-7.284
			c-2.823-3.135-4.955-6.903-6.399-11.31c-1.443-4.404-2.165-9.169-2.165-14.286c0-5.245,0.752-10.055,2.258-14.429
			c1.505-4.375,3.683-8.095,6.541-11.167c2.853-3.073,6.327-5.424,10.424-7.053c4.094-1.63,8.749-2.443,13.962-2.443
			c7.074,0,13.146,1.437,18.221,4.307c5.072,2.868,8.909,6.95,11.516,12.237c2.606,5.292,3.909,11.504,3.909,18.64
			C175.646,228.786,174.934,233.581,173.508,237.894 M189.612,231.764c0.406-2.519,0.678-5.081,0.678-7.712
			c0-2.275-0.215-4.492-0.521-6.686h34.259c-0.197,2.206-0.314,4.434-0.314,6.688c0,2.603,0.137,5.176,0.399,7.709L189.612,231.764
			L189.612,231.764z M326.562,243.222c-1.069,2.529-2.758,5.01-5.051,7.447c-2.295,2.435-5.229,4.411-8.797,5.932
			c-3.568,1.521-7.724,2.28-12.472,2.28c-3.6,0-6.874-0.34-9.82-1.022c-2.948-0.683-5.623-1.744-8.03-3.188
			c-2.403-1.443-4.614-3.344-6.629-5.701c-1.802-2.141-3.335-4.538-4.608-7.192c-1.271-2.653-2.225-5.481-2.864-8.493
			c-0.636-3.007-0.954-6.203-0.954-9.588c0-5.491,0.8-10.409,2.398-14.752c1.597-4.344,3.886-8.059,6.863-11.147
			c2.981-3.085,6.47-5.435,10.474-7.048c4.002-1.614,8.269-2.422,12.796-2.422c5.522,0,10.438,1.101,14.754,3.303
			c4.312,2.207,7.615,4.927,9.911,8.169c2.299,3.243,3.446,6.306,3.446,9.19c0,1.583-0.558,2.981-1.676,4.19
			c-1.117,1.208-2.468,1.814-4.052,1.814c-1.766,0-3.094-0.417-3.979-1.256c-0.879-0.836-1.865-2.279-2.952-4.328
			c-1.802-3.382-3.917-5.911-6.354-7.586c-2.435-1.675-5.437-2.511-9.005-2.511c-5.676,0-10.199,2.155-13.564,6.465
			c-3.367,4.312-5.051,10.443-5.051,18.383c0,5.307,0.744,9.722,2.234,13.241c1.49,3.523,3.6,6.152,6.33,7.889
			c2.731,1.736,5.928,2.607,9.586,2.607c3.972,0,7.329-0.984,10.076-2.955c2.747-1.972,4.816-4.863,6.212-8.678
			c0.591-1.802,1.32-3.267,2.188-4.4c0.871-1.131,2.27-1.699,4.19-1.699c1.642,0,3.055,0.574,4.235,1.725
			c1.179,1.146,1.766,2.573,1.766,4.278C328.164,238.341,327.631,240.692,326.562,243.222 M371.394,231.764
			c0.264-2.534,0.401-5.106,0.401-7.709c0-2.255-0.118-4.483-0.316-6.688h39.122c-0.308,2.193-0.521,4.411-0.521,6.686
			c0,2.631,0.271,5.194,0.678,7.712L371.394,231.764L371.394,231.764z M489.964,236.854c-1.452,3.998-3.63,7.465-6.537,10.4
			c-2.903,2.937-6.472,5.18-10.704,6.734c-4.229,1.553-9.08,2.329-14.539,2.329c-5.433,0-10.295-0.799-14.594-2.396
			c-4.293-1.596-7.875-3.85-10.749-6.756c-2.874-2.902-5.047-6.4-6.514-10.485c-1.468-4.083-2.202-8.501-2.202-13.25
			c0-4.863,0.765-9.32,2.299-13.376c1.53-4.057,3.747-7.509,6.651-10.359c2.907-2.848,6.443-5.025,10.61-6.537
			c4.166-1.513,8.905-2.268,14.212-2.268c7.199,0,13.382,1.332,18.543,3.992c5.162,2.662,9.07,6.444,11.726,11.352
			c2.65,4.906,3.977,10.665,3.977,17.283C492.143,228.41,491.416,232.856,489.964,236.854"/>
	</g>
</g>
<text transform="matrix(1 0 0 1 10.2266 571.4688)" enable-background="new    "><tspan x="0" y="0" fill="#26C6DA" font-family="'Roboto-Bold'" font-size="150">CARBON</tspan><tspan x="0" y="180" fill="#26C6DA" font-family="'Roboto-Bold'" font-size="150">DIOXIDE</tspan></text>
</svg>
