<?xml version="1.0" encoding="utf-8"?>
<!-- Generator: Adobe Illustrator 16.0.0, SVG Export Plug-In . SVG Version: 6.00 Build 0)  -->
<!DOCTYPE svg PUBLIC "-//W3C//DTD SVG 1.1//EN" "http://www.w3.org/Graphics/SVG/1.1/DTD/svg11.dtd">
<svg version="1.1" id="Layer_1" xmlns="http://www.w3.org/2000/svg" xmlns:xlink="http://www.w3.org/1999/xlink" x="0px" y="0px"
	 width="612px" height="792px" viewBox="0 0 612 792" enable-background="new 0 0 612 792" xml:space="preserve">
<path fill="#26C6DA" d="M429.012,340.576c-0.61-1.836-0.61-4.896-0.61-8.264l0,0l-4.284-84.762c0-14.688-5.508-27.54-15.3-36.108
	c-11.629-10.71-27.54-14.076-38.558-15.3V56.608c0-14.688-11.628-26.316-26.314-26.316H167.381
	c-14.688,0-26.316,11.628-26.316,26.316v386.784h-25.398c-7.344,0-13.158,5.814-13.158,13.158s5.814,13.158,13.158,13.158h52.02
	h176.257h52.02c7.344,0,13.158-5.814,13.158-13.158s-5.814-13.158-13.158-13.158H370.26V222.154
	c7.344,0.918,15.606,3.366,21.114,8.262c4.284,3.978,6.426,9.18,6.426,17.136v0.612l4.284,90.576
	c0.612,3.364,0.918,7.954,0.918,8.874c4.284,25.092,26.316,44.062,52.938,44.062c29.986,0,53.854-23.868,53.854-53.854
	c0-0.612,0-0.612,0-0.918l-11.628-162.486l0,0c-0.918-11.628-3.978-35.802,2.448-41.004c10.402-8.874-7.956-41.004-7.956-41.004l0,0
	c-18.974-41.616-63.036-58.752-63.036-58.752l-1.836-0.612c-0.918-0.612-1.53-0.612-2.448-0.612l0,0c-0.612,0-0.612,0-0.612,0
	c-0.61,0-0.918,0-1.528,0.612l0,0c-0.612,0-0.612,0.612-0.918,0.612l0,0c-0.918,0.612-1.836,1.836-1.836,3.978
	c0,3.978,3.06,4.896,3.06,4.896l0,0c10.71,5.814,20.196,16.524,26.01,25.092c2.448,3.366,4.284,6.732,6.427,9.792
	c0,0.612,0.611,0.612,0.611,0.612l0,0c0.612,0.918,0.918,1.836,1.53,3.06l0,0l0,0c0,0.612,0.612,0.918,0.612,1.53
	c3.06,6.426,4.282,10.404,4.282,10.404l0,0c9.182,25.092,11.322,50.49,11.322,50.49v1.53l0,0l10.404,194.31
	c0,14.688-12.24,26.929-27.54,26.929c-13.158,0-23.868-9.181-26.928-21.421l0,0 M167.381,56.608h176.256v138.618H167.381V56.608z
	 M167.381,443.392v-221.85h176.256v221.85H167.381L167.381,443.392z"/>
<rect y="583.5" fill="none" width="612" height="201"/>
<text transform="matrix(1 0 0 1 68.0605 735.8984)" fill="#26C6DA" font-family="'Roboto-Bold'" font-size="200">FUEL</text>
</svg>
