<?xml version="1.0" encoding="utf-8"?>
<!-- Generator: Adobe Illustrator 16.0.0, SVG Export Plug-In . SVG Version: 6.00 Build 0)  -->
<!DOCTYPE svg PUBLIC "-//W3C//DTD SVG 1.1//EN" "http://www.w3.org/Graphics/SVG/1.1/DTD/svg11.dtd">
<svg version="1.1" id="Layer_1" xmlns="http://www.w3.org/2000/svg" xmlns:xlink="http://www.w3.org/1999/xlink" x="0px" y="0px"
	 width="612px" height="792px" viewBox="0 0 612 792" enable-background="new 0 0 612 792" xml:space="preserve">
<path fill="#26C6DA" d="M585.072,211.138h-62.73l12.546-19.584c7.956-12.546,4.284-29.07-8.262-37.026s-29.07-4.284-37.026,8.262
	l-30.904,48.654l-105.876,0.306l52.938-93.024l73.134-3.979c14.994-0.918,26.316-13.464,25.398-28.458
	c-0.918-14.994-13.464-26.316-28.458-25.398l-38.862,2.142l16.83-29.682c7.344-12.852,2.754-29.376-10.098-36.72
	c-12.854-7.344-29.376-2.754-36.72,10.098l-17.138,29.988l-10.402-18.972c-7.038-13.158-23.562-17.748-36.722-10.71
	c-12.852,7.038-17.748,23.562-10.71,36.414l26.316,48.042L306,184.516l-52.938-93.024l26.316-48.042
	c7.038-13.158,2.448-29.376-10.71-36.414s-29.376-2.448-36.72,10.71l-10.404,18.972L204.408,6.73
	c-7.344-12.852-23.868-17.442-36.72-10.098s-17.442,23.868-10.098,36.72l16.83,29.682l-38.556-2.142
	c-14.994-0.918-27.54,10.71-28.458,25.398c-0.918,14.994,10.71,27.54,25.398,28.458l73.134,3.979l52.938,93.024L153,211.444
	l-30.294-48.654c-7.956-12.546-24.48-16.218-37.026-8.262c-12.546,7.956-16.218,24.48-8.262,37.026l12.546,19.584h-62.73
	C12.24,211.138,0,223.378,0,238.066c0,14.994,11.934,26.928,26.928,26.928H88.74l-19.584,31.52
	c-7.956,12.546-3.978,29.068,8.568,37.024s29.376,3.979,37.026-8.566l37.026-59.67l107.712,0.306l-51.408,89.964l-55.692,3.06
	c-14.688,0.919-26.316,13.466-25.398,28.458c0.918,14.994,13.464,26.316,28.458,25.398l20.502-1.224l-31.518,55.08
	c-7.344,12.852-2.754,29.376,10.098,36.72c12.852,7.344,29.376,3.06,36.72-10.1l32.742-57.222l19.278,34.578
	c7.344,13.158,23.562,17.748,36.72,10.404c12.852-7.345,17.748-23.562,10.404-36.722l-35.19-63.034l50.184-88.129l0,0l0,0
	l50.49,88.129L321.3,444.311c-7.344,13.158-2.448,29.376,10.404,36.72c12.852,7.344,29.376,2.754,36.72-10.404l19.278-34.577
	l32.742,57.223c7.344,12.852,23.867,17.44,36.72,10.098c12.852-7.343,17.441-23.868,10.098-36.72l-31.518-55.08l20.502,1.224
	c14.994,0.919,27.54-10.402,28.458-25.396c0.918-14.688-10.404-27.54-25.398-28.458l-55.69-3.062l-51.408-89.964l107.712-0.306
	l37.026,59.67c7.956,12.546,24.479,16.523,37.024,8.568c12.546-7.956,16.524-24.48,8.568-37.026l-19.584-31.518h61.812
	c14.994,0,26.93-12.24,26.93-26.929C612,223.378,599.76,211.138,585.072,211.138z"/>
<rect y="669" fill="none" width="612" height="100"/>
<rect y="590" fill="none" width="612" height="201"/>
<text transform="matrix(1 0 0 1 155.3164 742.3984)" fill="#26C6DA" font-family="'Roboto-Bold'" font-size="200">ICE</text>
</svg>
