<?xml version="1.0" encoding="utf-8"?>
<!-- Generator: Adobe Illustrator 16.0.0, SVG Export Plug-In . SVG Version: 6.00 Build 0)  -->
<!DOCTYPE svg PUBLIC "-//W3C//DTD SVG 1.1//EN" "http://www.w3.org/Graphics/SVG/1.1/DTD/svg11.dtd">
<svg version="1.1" id="Layer_1" xmlns="http://www.w3.org/2000/svg" xmlns:xlink="http://www.w3.org/1999/xlink" x="0px" y="0px"
	 width="612px" height="792px" viewBox="0 0 612 792" enable-background="new 0 0 612 792" xml:space="preserve">
<path fill="#26C6DA" d="M302.94,142.857c-6.734,0-12.041-5.51-12.041-12.041V62.041C290.9,55.306,296.41,50,302.94,50
	c6.734,0,12.04,5.51,12.04,12.041v68.775C314.98,137.347,309.675,142.857,302.94,142.857z"/>
<path fill="#26C6DA" d="M302.94,450c-6.734,0-12.041-5.51-12.041-12.04v-68.776c0-6.734,5.51-12.041,12.041-12.041
	c6.734,0,12.04,5.51,12.04,12.041v68.776C314.98,444.49,309.675,450,302.94,450z"/>
<path fill="#26C6DA" d="M490.898,262.041h-68.774c-6.734,0-12.041-5.511-12.041-12.042c0-6.734,5.51-12.041,12.041-12.041h68.774
	c6.735,0,12.043,5.51,12.043,12.041C502.941,256.53,497.43,262.041,490.898,262.041z"/>
<path fill="#26C6DA" d="M183.757,262.041h-68.775c-6.734,0-12.04-5.511-12.04-12.042c0-6.531,5.51-12.041,12.04-12.041h68.775
	c6.735,0,12.041,5.51,12.041,12.041C195.798,256.53,190.492,262.041,183.757,262.041z"/>
<path fill="#26C6DA" d="M435.797,394.898c-3.062,0-6.122-1.225-8.571-3.469l-48.572-48.572c-4.693-4.694-4.693-12.449,0-17.143
	c4.694-4.694,12.449-4.694,17.144,0l48.571,48.571c4.693,4.694,4.693,12.449,0,17.143
	C441.919,393.673,438.858,394.898,435.797,394.898z"/>
<path fill="#26C6DA" d="M218.655,177.755c-3.062,0-6.123-1.225-8.572-3.47l-48.571-48.571c-4.694-4.694-4.694-12.449,0-17.143
	c4.694-4.694,12.449-4.694,17.143,0l48.571,48.571c4.694,4.693,4.694,12.449,0,17.143
	C224.777,176.531,221.716,177.755,218.655,177.755z"/>
<path fill="#26C6DA" d="M170.083,394.898c-3.061,0-6.122-1.225-8.571-3.469c-4.693-4.694-4.693-12.449,0-17.143l48.571-48.571
	c4.694-4.694,12.449-4.694,17.143,0c4.694,4.693,4.694,12.449,0,17.143l-48.571,48.572
	C176.411,393.673,173.145,394.898,170.083,394.898z"/>
<path fill="#26C6DA" d="M387.227,177.755c-3.062,0-6.124-1.225-8.573-3.47c-4.693-4.693-4.693-12.449,0-17.143l48.572-48.571
	c4.693-4.694,12.449-4.694,17.143,0c4.693,4.694,4.693,12.449,0,17.143l-48.571,48.571
	C393.348,176.531,390.288,177.755,387.227,177.755z"/>
<path fill="#26C6DA" d="M302.94,328.98c-43.469,0-78.979-35.509-78.979-78.98c0-43.469,35.511-78.98,78.979-78.98
	c43.673,0,78.979,35.511,78.979,78.98C381.919,293.47,346.613,328.98,302.94,328.98z M302.94,195.102
	c-30.204,0-54.693,24.49-54.693,54.694c0,30.204,24.489,54.693,54.693,54.693s54.693-24.49,54.693-54.693
	C357.634,219.796,333.145,195.102,302.94,195.102z"/>
<rect y="692" fill="none" width="612.5" height="100"/>
<rect x="-3.06" y="591.5" fill="none" width="612" height="201"/>
<text transform="matrix(1 0 0 1 0 576.4688)" enable-background="new    "><tspan x="0" y="0" fill="#26C6DA" font-family="'Roboto-Bold'" font-size="160"> SOLAR</tspan><tspan x="0" y="192" fill="#26C6DA" font-family="'Roboto-Bold'" font-size="160">ENERGY</tspan></text>
</svg>
