<?xml version="1.0" encoding="utf-8"?>
<!-- Generator: Adobe Illustrator 16.0.0, SVG Export Plug-In . SVG Version: 6.00 Build 0)  -->
<!DOCTYPE svg PUBLIC "-//W3C//DTD SVG 1.1//EN" "http://www.w3.org/Graphics/SVG/1.1/DTD/svg11.dtd">
<svg version="1.1" id="Layer_1" xmlns="http://www.w3.org/2000/svg" xmlns:xlink="http://www.w3.org/1999/xlink" x="0px" y="0px"
	 width="612px" height="792px" viewBox="0 0 612 792" enable-background="new 0 0 612 792" xml:space="preserve">
<g>
	<path fill="#26C6DA" d="M166.77,193.39c-7.65-4.896-16.524-7.344-26.622-7.344c-7.038,0-13.77,1.224-19.89,3.978
		c-6.12,2.754-11.322,6.732-15.606,11.628c-4.284,5.202-7.956,11.628-10.404,19.584c-2.448,7.956-3.672,16.83-3.672,26.929
		c0,10.098,1.224,18.972,3.672,27.234c2.448,7.956,6.12,14.688,10.71,20.193s9.792,9.183,15.912,11.937s12.546,3.978,19.584,3.978
		c9.18,0,17.442-2.142,25.092-6.729c7.65-4.593,13.77-11.628,18.36-21.114c4.59-9.486,6.732-21.42,6.732-35.19
		c0-12.852-2.142-24.174-6.12-33.66C180.54,205.326,174.42,198.286,166.77,193.39z"/>
	<path fill="#26C6DA" d="M497.862,197.368c-7.956-4.591-16.83-6.732-27.234-6.732c-7.344,0-14.076,1.224-20.196,3.672
		c-6.118,2.448-11.319,6.12-15.912,11.017c-4.59,4.896-7.953,10.71-10.401,18.359c-2.448,7.344-3.979,15.606-3.979,24.786
		c0,9.181,1.227,17.748,3.979,25.09c2.448,7.65,6.12,13.771,11.016,18.666c4.59,4.896,10.101,8.568,16.218,11.019
		c6.12,2.448,12.854,3.672,19.893,3.672c9.18,0,17.748-2.142,25.704-6.426c7.647-4.284,14.075-10.71,18.666-19.584
		c4.59-8.874,7.038-19.584,7.038-32.742c0-11.935-2.145-22.338-6.429-31.212C511.632,208.384,505.512,201.958,497.862,197.368z"/>
	<path fill="#26C6DA" d="M471.24,125.764c-44.676,0-83.538,23.562-105.57,59.059h-3.366h-116.28
		c-21.726-35.19-60.894-59.059-105.264-59.059c-68.544,0-124.236,55.692-124.236,124.236S72.216,374.236,140.76,374.236
		c43.452,0,81.702-22.338,103.734-56.307h119.034h3.978c22.032,33.969,60.282,56.307,103.734,56.307
		c68.544,0,124.233-55.692,124.233-124.236S539.784,125.764,471.24,125.764z M221.544,285.802
		c-3.672,11.019-9.18,20.811-16.524,29.07c-7.344,8.262-16.524,14.382-27.234,18.666s-22.95,6.426-37.026,6.426
		c-13.77,0-26.01-2.142-37.026-6.729c-11.016-4.593-19.89-10.711-27.234-18.666c-7.344-7.956-12.852-17.748-16.524-29.07
		s-5.508-23.562-5.508-37.026s1.836-26.01,5.814-37.332c3.978-11.322,9.486-20.808,16.83-28.764
		c7.344-7.956,16.218-14.076,26.928-18.36s22.644-6.426,36.108-6.426c18.36,0,33.966,3.672,47.124,11.016
		c13.158,7.345,22.95,18.055,29.682,31.519c6.732,13.77,10.098,29.682,10.098,48.042C227.052,262.24,225.216,274.48,221.544,285.802
		z M263.16,269.89c0.918-6.426,1.836-13.155,1.836-19.89c0-5.814-0.612-11.628-1.224-17.136h85.068
		c-0.918,5.508-1.224,11.321-1.224,17.136c0,6.732,0.609,13.464,1.836,19.89H263.16z M553.554,283.048
		c-3.672,10.404-9.483,19.278-16.83,26.928c-7.647,7.65-16.83,13.467-27.54,17.442c-11.016,3.979-23.562,6.12-37.638,6.12
		s-26.622-2.142-37.638-6.12c-11.019-3.978-20.196-9.792-27.849-17.442c-7.344-7.647-13.155-16.521-16.827-27.231
		c-3.675-10.404-5.814-22.032-5.814-34.272c0-12.546,1.836-24.174,5.814-34.578c3.978-10.403,9.791-19.277,17.136-26.622
		c7.647-7.344,16.521-12.852,27.54-16.83c10.71-3.978,22.95-5.813,36.72-5.813c18.666,0,34.578,3.366,48.042,10.404
		c13.464,6.731,23.562,16.523,30.294,29.376c6.732,12.546,10.404,27.54,10.404,44.676
		C559.062,261.322,557.226,272.644,553.554,283.048z"/>
</g>
<rect y="692" fill="none" width="612" height="100"/>
<rect y="692" fill="none" width="612" height="100"/>
<rect x="-0.001" y="591.5" fill="none" width="612" height="201"/>
<text transform="matrix(1 0 0 1 53.7622 711.8945)" fill="#26C6DA" font-family="'Roboto-Bold'" font-size="158">OXYGE</text>
</svg>
