<?xml version="1.0" encoding="utf-8"?>
<!-- Generator: Adobe Illustrator 16.0.0, SVG Export Plug-In . SVG Version: 6.00 Build 0)  -->
<!DOCTYPE svg PUBLIC "-//W3C//DTD SVG 1.1//EN" "http://www.w3.org/Graphics/SVG/1.1/DTD/svg11.dtd">
<svg version="1.1" id="Layer_1" xmlns="http://www.w3.org/2000/svg" xmlns:xlink="http://www.w3.org/1999/xlink" x="0px" y="0px"
	 width="612px" height="792px" viewBox="0 0 612 792" enable-background="new 0 0 612 792" xml:space="preserve">
<g>
	<path fill="#26C6DA" d="M101.286,122.245l40.392,66.708c4.284,7.344,2.142,16.524-4.896,21.114l-22.032,14.076
		c-7.344,4.59-9.486,14.382-4.59,21.726c14.993,22.338,46.206,65.79,68.544,71.91c20.195,5.508,41.615,6.12,53.55,6.12
		c6.12,0,11.322-3.672,14.076-8.874c5.202-10.71,13.464-30.6,16.83-51.102c3.672-22.951-22.645-69.463-36.721-92.414
		c-4.59-7.344-14.382-9.485-21.726-4.896L183.6,180.079c-7.344,4.59-17.136,2.448-21.726-5.202l-39.78-65.79l32.742-20.502
		c14.382-8.874,18.666-27.846,9.792-42.228l-13.464-21.42c-5.508-8.874-15.3-14.383-26.011-14.383
		c-5.813,0-11.321,1.53-16.218,4.591l-85.68,53.55c-7.038,4.284-11.628,11.016-13.464,18.972c-2.143,8.568-0.612,16.83,3.672,23.562
		l13.464,21.42c5.508,8.874,15.3,14.382,26.01,14.382c5.814,0,11.322-1.53,16.219-4.59L101.286,122.245z M47.735,119.797
		l-13.464-21.42c-1.224-1.836-0.918-3.672-0.918-4.59c0.307-0.918,0.918-2.754,2.754-3.672l85.681-53.55
		c0.918-0.612,2.142-0.918,3.365-0.918c2.143,0,3.979,1.224,5.202,2.754l13.464,21.42c1.837,2.754,0.918,6.731-1.836,8.567
		l-85.68,53.551C53.244,123.469,49.266,122.551,47.735,119.797z"/>
	<path fill="#26C6DA" d="M561.204,472.31c-8.568-90.882-85.068-161.874-178.092-161.874c-56.61,0-107.101,26.314-139.843,67.32
		c-4.284,5.508-11.934,7.036-18.359,4.59c-13.771-5.814-29.07-9.182-45.288-9.182c-58.141,0-106.183,42.534-114.75,98.228
		c-1.53,9.484,6.12,18.054,15.605,18.054h465.12C554.778,489.445,562.122,481.489,561.204,472.31z"/>
	<circle fill="#26C6DA" cx="410.652" cy="264.841" r="29.988"/>
	<circle fill="#26C6DA" cx="524.79" cy="290.852" r="26.01"/>
	<circle fill="#26C6DA" cx="476.442" cy="235.771" r="10.098"/>
</g>
<rect y="658.5" fill="none" width="612" height="100"/>
<rect y="591" fill="none" width="612" height="201"/>
<text transform="matrix(1 0 0 1 90.8145 743.3984)" fill="#26C6DA" font-family="'Roboto-Bold'" font-size="200">SOIL</text>
</svg>
